<svg xmlns="http://www.w3.org/2000/svg" viewBox="0 0 437 545" width="437" height="545" shape-rendering="crispEdges" style="width: 100%; height: 100%">
  <rect x="0" y="0" width="437" height="545" fill="#6F3E20" />
  <rect x="0" y="0" width="70" height="545" fill="#754323" />
  <rect x="8" y="18" width="54" height="3" fill="#A05D2F" style="opacity: 0.45" />
  <rect x="11" y="44" width="41" height="3" fill="#A05D2F" style="opacity: 0.45" />
  <rect x="10" y="70" width="47" height="3" fill="#A05D2F" style="opacity: 0.45" />
  <rect x="11" y="96" width="48" height="3" fill="#A05D2F" style="opacity: 0.45" />
  <rect x="9" y="122" width="51" height="3" fill="#A05D2F" style="opacity: 0.45" />
  <rect x="12" y="148" width="46" height="3" fill="#A05D2F" style="opacity: 0.45" />
  <rect x="13" y="174" width="37" height="3" fill="#A05D2F" style="opacity: 0.45" />
  <rect x="9" y="200" width="48" height="3" fill="#A05D2F" style="opacity: 0.45" />
  <rect x="8" y="226" width="48" height="3" fill="#A05D2F" style="opacity: 0.45" />
  <rect x="9" y="252" width="48" height="3" fill="#A05D2F" style="opacity: 0.45" />
  <rect x="11" y="278" width="41" height="3" fill="#A05D2F" style="opacity: 0.45" />
  <rect x="10" y="304" width="44" height="3" fill="#A05D2F" style="opacity: 0.45" />
  <rect x="11" y="330" width="42" height="3" fill="#A05D2F" style="opacity: 0.45" />
  <rect x="14" y="356" width="37" height="3" fill="#A05D2F" style="opacity: 0.45" />
  <rect x="12" y="382" width="41" height="3" fill="#A05D2F" style="opacity: 0.45" />
  <rect x="13" y="408" width="41" height="3" fill="#A05D2F" style="opacity: 0.45" />
  <rect x="13" y="434" width="37" height="3" fill="#A05D2F" style="opacity: 0.45" />
  <rect x="9" y="460" width="52" height="3" fill="#A05D2F" style="opacity: 0.45" />
  <rect x="9" y="486" width="48" height="3" fill="#A05D2F" style="opacity: 0.45" />
  <rect x="12" y="512" width="45" height="3" fill="#A05D2F" style="opacity: 0.45" />
  <rect x="70" y="0" width="72" height="545" fill="#82502A" />
  <rect x="67" y="0" width="4" height="545" fill="#2F190F" style="opacity: 0.9" />
  <rect x="71" y="0" width="3" height="545" fill="#A26331" style="opacity: 0.62" />
  <rect x="81" y="25" width="49" height="3" fill="#4A2817" style="opacity: 0.45" />
  <rect x="78" y="58" width="55" height="3" fill="#4A2817" style="opacity: 0.45" />
  <rect x="78" y="91" width="50" height="3" fill="#4A2817" style="opacity: 0.45" />
  <rect x="82" y="124" width="43" height="3" fill="#4A2817" style="opacity: 0.45" />
  <rect x="79" y="157" width="47" height="3" fill="#4A2817" style="opacity: 0.45" />
  <rect x="80" y="190" width="50" height="3" fill="#4A2817" style="opacity: 0.45" />
  <rect x="83" y="223" width="43" height="3" fill="#4A2817" style="opacity: 0.45" />
  <rect x="81" y="256" width="49" height="3" fill="#4A2817" style="opacity: 0.45" />
  <rect x="79" y="289" width="47" height="3" fill="#4A2817" style="opacity: 0.45" />
  <rect x="79" y="322" width="47" height="3" fill="#4A2817" style="opacity: 0.45" />
  <rect x="78" y="355" width="52" height="3" fill="#4A2817" style="opacity: 0.45" />
  <rect x="82" y="388" width="46" height="3" fill="#4A2817" style="opacity: 0.45" />
  <rect x="82" y="421" width="46" height="3" fill="#4A2817" style="opacity: 0.45" />
  <rect x="78" y="454" width="52" height="3" fill="#4A2817" style="opacity: 0.45" />
  <rect x="86" y="451" width="21" height="3" fill="#3D2114" style="opacity: 0.48" />
  <rect x="106" y="457" width="14" height="3" fill="#B16A35" style="opacity: 0.38" />
  <rect x="81" y="487" width="48" height="3" fill="#4A2817" style="opacity: 0.45" />
  <rect x="84" y="520" width="40" height="3" fill="#4A2817" style="opacity: 0.45" />
  <rect x="142" y="0" width="73" height="545" fill="#6B3A1F" />
  <rect x="139" y="0" width="4" height="545" fill="#2F190F" style="opacity: 0.9" />
  <rect x="143" y="0" width="3" height="545" fill="#A26331" style="opacity: 0.62" />
  <rect x="153" y="32" width="49" height="3" fill="#A05D2F" style="opacity: 0.45" />
  <rect x="152" y="58" width="51" height="3" fill="#A05D2F" style="opacity: 0.45" />
  <rect x="151" y="84" width="55" height="3" fill="#A05D2F" style="opacity: 0.45" />
  <rect x="156" y="110" width="40" height="3" fill="#A05D2F" style="opacity: 0.45" />
  <rect x="151" y="136" width="52" height="3" fill="#A05D2F" style="opacity: 0.45" />
  <rect x="152" y="162" width="51" height="3" fill="#A05D2F" style="opacity: 0.45" />
  <rect x="154" y="188" width="42" height="3" fill="#A05D2F" style="opacity: 0.45" />
  <rect x="151" y="214" width="54" height="3" fill="#A05D2F" style="opacity: 0.45" />
  <rect x="154" y="240" width="42" height="3" fill="#A05D2F" style="opacity: 0.45" />
  <rect x="153" y="266" width="50" height="3" fill="#A05D2F" style="opacity: 0.45" />
  <rect x="155" y="292" width="44" height="3" fill="#A05D2F" style="opacity: 0.45" />
  <rect x="153" y="318" width="46" height="3" fill="#A05D2F" style="opacity: 0.45" />
  <rect x="153" y="344" width="50" height="3" fill="#A05D2F" style="opacity: 0.45" />
  <rect x="161" y="341" width="21" height="3" fill="#3D2114" style="opacity: 0.48" />
  <rect x="180" y="347" width="14" height="3" fill="#B16A35" style="opacity: 0.38" />
  <rect x="156" y="370" width="42" height="3" fill="#A05D2F" style="opacity: 0.45" />
  <rect x="156" y="396" width="45" height="3" fill="#A05D2F" style="opacity: 0.45" />
  <rect x="152" y="422" width="50" height="3" fill="#A05D2F" style="opacity: 0.45" />
  <rect x="154" y="448" width="45" height="3" fill="#A05D2F" style="opacity: 0.45" />
  <rect x="155" y="474" width="46" height="3" fill="#A05D2F" style="opacity: 0.45" />
  <rect x="155" y="500" width="42" height="3" fill="#A05D2F" style="opacity: 0.45" />
  <rect x="154" y="526" width="43" height="3" fill="#A05D2F" style="opacity: 0.45" />
  <rect x="215" y="0" width="73" height="545" fill="#7D4825" />
  <rect x="212" y="0" width="4" height="545" fill="#2F190F" style="opacity: 0.9" />
  <rect x="216" y="0" width="3" height="545" fill="#A26331" style="opacity: 0.62" />
  <rect x="223" y="18" width="54" height="3" fill="#4A2817" style="opacity: 0.45" />
  <rect x="223" y="51" width="55" height="3" fill="#4A2817" style="opacity: 0.45" />
  <rect x="224" y="84" width="54" height="3" fill="#4A2817" style="opacity: 0.45" />
  <rect x="228" y="117" width="44" height="3" fill="#4A2817" style="opacity: 0.45" />
  <rect x="224" y="150" width="53" height="3" fill="#4A2817" style="opacity: 0.45" />
  <rect x="224" y="183" width="53" height="3" fill="#4A2817" style="opacity: 0.45" />
  <rect x="226" y="216" width="45" height="3" fill="#4A2817" style="opacity: 0.45" />
  <rect x="227" y="249" width="42" height="3" fill="#4A2817" style="opacity: 0.45" />
  <rect x="225" y="282" width="53" height="3" fill="#4A2817" style="opacity: 0.45" />
  <rect x="229" y="315" width="43" height="3" fill="#4A2817" style="opacity: 0.45" />
  <rect x="227" y="348" width="48" height="3" fill="#4A2817" style="opacity: 0.45" />
  <rect x="228" y="381" width="45" height="3" fill="#4A2817" style="opacity: 0.45" />
  <rect x="228" y="414" width="42" height="3" fill="#4A2817" style="opacity: 0.45" />
  <rect x="228" y="447" width="42" height="3" fill="#4A2817" style="opacity: 0.45" />
  <rect x="236" y="444" width="17" height="3" fill="#3D2114" style="opacity: 0.48" />
  <rect x="251" y="450" width="11" height="3" fill="#B16A35" style="opacity: 0.38" />
  <rect x="225" y="480" width="46" height="3" fill="#4A2817" style="opacity: 0.45" />
  <rect x="225" y="513" width="50" height="3" fill="#4A2817" style="opacity: 0.45" />
  <rect x="288" y="0" width="74" height="545" fill="#714020" />
  <rect x="285" y="0" width="4" height="545" fill="#2F190F" style="opacity: 0.9" />
  <rect x="289" y="0" width="3" height="545" fill="#A26331" style="opacity: 0.62" />
  <rect x="300" y="25" width="44" height="3" fill="#A05D2F" style="opacity: 0.45" />
  <rect x="296" y="51" width="57" height="3" fill="#A05D2F" style="opacity: 0.45" />
  <rect x="298" y="77" width="54" height="3" fill="#A05D2F" style="opacity: 0.45" />
  <rect x="301" y="103" width="46" height="3" fill="#A05D2F" style="opacity: 0.45" />
  <rect x="300" y="129" width="45" height="3" fill="#A05D2F" style="opacity: 0.45" />
  <rect x="297" y="155" width="55" height="3" fill="#A05D2F" style="opacity: 0.45" />
  <rect x="299" y="181" width="45" height="3" fill="#A05D2F" style="opacity: 0.45" />
  <rect x="299" y="207" width="49" height="3" fill="#A05D2F" style="opacity: 0.45" />
  <rect x="298" y="233" width="51" height="3" fill="#A05D2F" style="opacity: 0.45" />
  <rect x="299" y="259" width="48" height="3" fill="#A05D2F" style="opacity: 0.45" />
  <rect x="297" y="285" width="50" height="3" fill="#A05D2F" style="opacity: 0.45" />
  <rect x="297" y="311" width="54" height="3" fill="#A05D2F" style="opacity: 0.45" />
  <rect x="298" y="337" width="53" height="3" fill="#A05D2F" style="opacity: 0.45" />
  <rect x="306" y="334" width="22" height="3" fill="#3D2114" style="opacity: 0.48" />
  <rect x="327" y="340" width="14" height="3" fill="#B16A35" style="opacity: 0.38" />
  <rect x="298" y="363" width="52" height="3" fill="#A05D2F" style="opacity: 0.45" />
  <rect x="298" y="389" width="50" height="3" fill="#A05D2F" style="opacity: 0.45" />
  <rect x="301" y="415" width="42" height="3" fill="#A05D2F" style="opacity: 0.45" />
  <rect x="301" y="441" width="44" height="3" fill="#A05D2F" style="opacity: 0.45" />
  <rect x="302" y="467" width="43" height="3" fill="#A05D2F" style="opacity: 0.45" />
  <rect x="301" y="493" width="48" height="3" fill="#A05D2F" style="opacity: 0.45" />
  <rect x="301" y="519" width="43" height="3" fill="#A05D2F" style="opacity: 0.45" />
  <rect x="362" y="0" width="75" height="545" fill="#814D27" />
  <rect x="359" y="0" width="4" height="545" fill="#2F190F" style="opacity: 0.9" />
  <rect x="363" y="0" width="3" height="545" fill="#A26331" style="opacity: 0.62" />
  <rect x="371" y="32" width="55" height="3" fill="#4A2817" style="opacity: 0.45" />
  <rect x="376" y="65" width="46" height="3" fill="#4A2817" style="opacity: 0.45" />
  <rect x="370" y="98" width="57" height="3" fill="#4A2817" style="opacity: 0.45" />
  <rect x="372" y="131" width="50" height="3" fill="#4A2817" style="opacity: 0.45" />
  <rect x="373" y="164" width="50" height="3" fill="#4A2817" style="opacity: 0.45" />
  <rect x="372" y="197" width="48" height="3" fill="#4A2817" style="opacity: 0.45" />
  <rect x="376" y="230" width="42" height="3" fill="#4A2817" style="opacity: 0.45" />
  <rect x="371" y="263" width="53" height="3" fill="#4A2817" style="opacity: 0.45" />
  <rect x="370" y="296" width="53" height="3" fill="#4A2817" style="opacity: 0.45" />
  <rect x="371" y="329" width="55" height="3" fill="#4A2817" style="opacity: 0.45" />
  <rect x="370" y="362" width="59" height="3" fill="#4A2817" style="opacity: 0.45" />
  <rect x="375" y="395" width="49" height="3" fill="#4A2817" style="opacity: 0.45" />
  <rect x="373" y="428" width="52" height="3" fill="#4A2817" style="opacity: 0.45" />
  <rect x="371" y="461" width="54" height="3" fill="#4A2817" style="opacity: 0.45" />
  <rect x="370" y="494" width="55" height="3" fill="#4A2817" style="opacity: 0.45" />
  <rect x="375" y="527" width="45" height="3" fill="#4A2817" style="opacity: 0.45" />
  <rect x="0" y="112" width="437" height="6" fill="#2B170E" style="opacity: 0.88" />
  <rect x="0" y="118" width="437" height="3" fill="#A35F2E" style="opacity: 0.58" />
  <rect x="0" y="109" width="437" height="3" fill="#4A2817" style="opacity: 0.62" />
  <rect x="0" y="206" width="437" height="6" fill="#2B170E" style="opacity: 0.88" />
  <rect x="0" y="212" width="437" height="3" fill="#A35F2E" style="opacity: 0.58" />
  <rect x="0" y="300" width="437" height="6" fill="#2B170E" style="opacity: 0.88" />
  <rect x="0" y="306" width="437" height="3" fill="#A35F2E" style="opacity: 0.58" />
  <rect x="0" y="297" width="437" height="3" fill="#4A2817" style="opacity: 0.62" />
  <rect x="0" y="394" width="437" height="6" fill="#2B170E" style="opacity: 0.88" />
  <rect x="0" y="400" width="437" height="3" fill="#A35F2E" style="opacity: 0.58" />
  <rect x="0" y="482" width="437" height="6" fill="#2B170E" style="opacity: 0.88" />
  <rect x="0" y="488" width="437" height="3" fill="#A35F2E" style="opacity: 0.58" />
  <rect x="0" y="479" width="437" height="3" fill="#4A2817" style="opacity: 0.62" />
  <rect x="26" y="82" width="24" height="3" fill="#3A1E12" style="opacity: 0.82" />
  <rect x="20" y="85" width="36" height="3" fill="#3A1E12" style="opacity: 0.68" />
  <rect x="24" y="88" width="28" height="3" fill="#3A1E12" style="opacity: 0.74" />
  <rect x="30" y="91" width="16" height="3" fill="#28150D" style="opacity: 0.88" />
  <rect x="34" y="85" width="8" height="6" fill="#B16835" style="opacity: 0.56" />
  <rect x="96" y="168" width="24" height="3" fill="#2D180F" style="opacity: 0.82" />
  <rect x="90" y="171" width="36" height="3" fill="#2D180F" style="opacity: 0.68" />
  <rect x="94" y="174" width="28" height="3" fill="#2D180F" style="opacity: 0.74" />
  <rect x="100" y="177" width="16" height="3" fill="#28150D" style="opacity: 0.88" />
  <rect x="104" y="171" width="8" height="6" fill="#98552A" style="opacity: 0.56" />
  <rect x="166" y="62" width="24" height="3" fill="#3A1E12" style="opacity: 0.82" />
  <rect x="160" y="65" width="36" height="3" fill="#3A1E12" style="opacity: 0.68" />
  <rect x="164" y="68" width="28" height="3" fill="#3A1E12" style="opacity: 0.74" />
  <rect x="170" y="71" width="16" height="3" fill="#28150D" style="opacity: 0.88" />
  <rect x="174" y="65" width="8" height="6" fill="#98552A" style="opacity: 0.56" />
  <rect x="243" y="252" width="24" height="3" fill="#2D180F" style="opacity: 0.82" />
  <rect x="237" y="255" width="36" height="3" fill="#2D180F" style="opacity: 0.68" />
  <rect x="241" y="258" width="28" height="3" fill="#2D180F" style="opacity: 0.74" />
  <rect x="247" y="261" width="16" height="3" fill="#28150D" style="opacity: 0.88" />
  <rect x="251" y="255" width="8" height="6" fill="#B16835" style="opacity: 0.56" />
  <rect x="318" y="144" width="24" height="3" fill="#3A1E12" style="opacity: 0.82" />
  <rect x="312" y="147" width="36" height="3" fill="#3A1E12" style="opacity: 0.68" />
  <rect x="316" y="150" width="28" height="3" fill="#3A1E12" style="opacity: 0.74" />
  <rect x="322" y="153" width="16" height="3" fill="#28150D" style="opacity: 0.88" />
  <rect x="326" y="147" width="8" height="6" fill="#98552A" style="opacity: 0.56" />
  <rect x="385" y="334" width="24" height="3" fill="#2D180F" style="opacity: 0.82" />
  <rect x="379" y="337" width="36" height="3" fill="#2D180F" style="opacity: 0.68" />
  <rect x="383" y="340" width="28" height="3" fill="#2D180F" style="opacity: 0.74" />
  <rect x="389" y="343" width="16" height="3" fill="#28150D" style="opacity: 0.88" />
  <rect x="393" y="337" width="8" height="6" fill="#98552A" style="opacity: 0.56" />
  <rect x="50" y="438" width="24" height="3" fill="#3A1E12" style="opacity: 0.82" />
  <rect x="44" y="441" width="36" height="3" fill="#3A1E12" style="opacity: 0.68" />
  <rect x="48" y="444" width="28" height="3" fill="#3A1E12" style="opacity: 0.74" />
  <rect x="54" y="447" width="16" height="3" fill="#28150D" style="opacity: 0.88" />
  <rect x="58" y="441" width="8" height="6" fill="#B16835" style="opacity: 0.56" />
  <rect x="140" y="356" width="24" height="3" fill="#2D180F" style="opacity: 0.82" />
  <rect x="134" y="359" width="36" height="3" fill="#2D180F" style="opacity: 0.68" />
  <rect x="138" y="362" width="28" height="3" fill="#2D180F" style="opacity: 0.74" />
  <rect x="144" y="365" width="16" height="3" fill="#28150D" style="opacity: 0.88" />
  <rect x="148" y="359" width="8" height="6" fill="#98552A" style="opacity: 0.56" />
  <rect x="226" y="466" width="24" height="3" fill="#3A1E12" style="opacity: 0.82" />
  <rect x="220" y="469" width="36" height="3" fill="#3A1E12" style="opacity: 0.68" />
  <rect x="224" y="472" width="28" height="3" fill="#3A1E12" style="opacity: 0.74" />
  <rect x="230" y="475" width="16" height="3" fill="#28150D" style="opacity: 0.88" />
  <rect x="234" y="469" width="8" height="6" fill="#98552A" style="opacity: 0.56" />
  <rect x="306" y="410" width="24" height="3" fill="#2D180F" style="opacity: 0.82" />
  <rect x="300" y="413" width="36" height="3" fill="#2D180F" style="opacity: 0.68" />
  <rect x="304" y="416" width="28" height="3" fill="#2D180F" style="opacity: 0.74" />
  <rect x="310" y="419" width="16" height="3" fill="#28150D" style="opacity: 0.88" />
  <rect x="314" y="413" width="8" height="6" fill="#B16835" style="opacity: 0.56" />
  <rect x="379" y="92" width="24" height="3" fill="#3A1E12" style="opacity: 0.82" />
  <rect x="373" y="95" width="36" height="3" fill="#3A1E12" style="opacity: 0.68" />
  <rect x="377" y="98" width="28" height="3" fill="#3A1E12" style="opacity: 0.74" />
  <rect x="383" y="101" width="16" height="3" fill="#28150D" style="opacity: 0.88" />
  <rect x="387" y="95" width="8" height="6" fill="#98552A" style="opacity: 0.56" />
  <rect x="81" y="37" width="9" height="3" fill="#A66030" style="opacity: 0.48" />
  <rect x="84" y="40" width="6" height="3" fill="#3B2013" style="opacity: 0.55" />
  <rect x="30" y="247" width="12" height="3" fill="#A66030" style="opacity: 0.48" />
  <rect x="30" y="127" width="21" height="3" fill="#A66030" style="opacity: 0.48" />
  <rect x="60" y="214" width="18" height="3" fill="#A66030" style="opacity: 0.48" />
  <rect x="123" y="49" width="12" height="3" fill="#A66030" style="opacity: 0.48" />
  <rect x="129" y="52" width="6" height="3" fill="#3B2013" style="opacity: 0.55" />
  <rect x="111" y="19" width="15" height="3" fill="#A66030" style="opacity: 0.48" />
  <rect x="147" y="202" width="18" height="3" fill="#A66030" style="opacity: 0.48" />
  <rect x="156" y="175" width="21" height="3" fill="#A66030" style="opacity: 0.48" />
  <rect x="207" y="97" width="18" height="3" fill="#A66030" style="opacity: 0.48" />
  <rect x="219" y="100" width="6" height="3" fill="#3B2013" style="opacity: 0.55" />
  <rect x="129" y="55" width="18" height="3" fill="#A66030" style="opacity: 0.48" />
  <rect x="78" y="232" width="12" height="3" fill="#A66030" style="opacity: 0.48" />
  <rect x="87" y="19" width="9" height="3" fill="#A66030" style="opacity: 0.48" />
  <rect x="36" y="154" width="15" height="3" fill="#A66030" style="opacity: 0.48" />
  <rect x="45" y="157" width="6" height="3" fill="#3B2013" style="opacity: 0.55" />
  <rect x="201" y="31" width="9" height="3" fill="#A66030" style="opacity: 0.48" />
  <rect x="138" y="163" width="21" height="3" fill="#A66030" style="opacity: 0.48" />
  <rect x="132" y="229" width="9" height="3" fill="#A66030" style="opacity: 0.48" />
  <rect x="108" y="232" width="21" height="3" fill="#A66030" style="opacity: 0.48" />
  <rect x="123" y="235" width="6" height="3" fill="#3B2013" style="opacity: 0.55" />
  <rect x="204" y="250" width="21" height="3" fill="#A66030" style="opacity: 0.48" />
  <rect x="105" y="61" width="9" height="3" fill="#A66030" style="opacity: 0.48" />
  <rect x="126" y="163" width="12" height="3" fill="#A66030" style="opacity: 0.48" />
  <rect x="45" y="172" width="21" height="3" fill="#A66030" style="opacity: 0.48" />
  <rect x="60" y="175" width="6" height="3" fill="#3B2013" style="opacity: 0.55" />
  <rect x="33" y="238" width="18" height="3" fill="#A66030" style="opacity: 0.48" />
  <rect x="12" y="76" width="9" height="3" fill="#A66030" style="opacity: 0.48" />
  <rect x="156" y="217" width="9" height="3" fill="#A66030" style="opacity: 0.48" />
  <rect x="12" y="115" width="15" height="3" fill="#A66030" style="opacity: 0.48" />
  <rect x="21" y="118" width="6" height="3" fill="#3B2013" style="opacity: 0.55" />
  <rect x="207" y="190" width="18" height="3" fill="#A66030" style="opacity: 0.48" />
  <rect x="75" y="145" width="18" height="3" fill="#A66030" style="opacity: 0.48" />
  <rect x="87" y="148" width="18" height="3" fill="#A66030" style="opacity: 0.48" />
  <rect x="192" y="109" width="21" height="3" fill="#A66030" style="opacity: 0.48" />
  <rect x="207" y="112" width="6" height="3" fill="#3B2013" style="opacity: 0.55" />
  <rect x="147" y="229" width="21" height="3" fill="#A66030" style="opacity: 0.48" />
  <rect x="48" y="208" width="12" height="3" fill="#A66030" style="opacity: 0.48" />
  <rect x="27" y="205" width="18" height="3" fill="#A66030" style="opacity: 0.48" />
  <rect x="126" y="193" width="21" height="3" fill="#A66030" style="opacity: 0.48" />
  <rect x="141" y="196" width="6" height="3" fill="#3B2013" style="opacity: 0.55" />
  <rect x="102" y="142" width="15" height="3" fill="#A66030" style="opacity: 0.48" />
  <rect x="0" y="0" width="437" height="12" fill="#351C11" />
  <rect x="0" y="533" width="437" height="12" fill="#351C11" />
  <rect x="0" y="0" width="12" height="545" fill="#351C11" />
  <rect x="425" y="0" width="12" height="545" fill="#351C11" />
  <rect x="12" y="12" width="413" height="4" fill="#AD6934" style="opacity: 0.75" />
  <rect x="12" y="529" width="413" height="4" fill="#AD6934" style="opacity: 0.55" />
  <rect x="12" y="12" width="4" height="521" fill="#AD6934" style="opacity: 0.64" />
  <rect x="421" y="12" width="4" height="521" fill="#AD6934" style="opacity: 0.5" />
  <rect x="18" y="18" width="401" height="4" fill="#4A2817" />
  <rect x="18" y="523" width="401" height="4" fill="#4A2817" />
  <rect x="18" y="18" width="4" height="509" fill="#4A2817" />
  <rect x="415" y="18" width="4" height="509" fill="#4A2817" />
  <rect x="8" y="8" width="28" height="6" fill="#211B18" />
  <rect x="8" y="14" width="6" height="28" fill="#211B18" />
  <rect x="14" y="14" width="14" height="14" fill="#3C332D" />
  <rect x="17" y="17" width="6" height="6" fill="#8A7358" />
  <rect x="19" y="19" width="3" height="3" fill="#171310" />
  <rect x="401" y="8" width="28" height="6" fill="#211B18" />
  <rect x="401" y="14" width="6" height="28" fill="#211B18" />
  <rect x="407" y="14" width="14" height="14" fill="#3C332D" />
  <rect x="410" y="17" width="6" height="6" fill="#8A7358" />
  <rect x="412" y="19" width="3" height="3" fill="#171310" />
  <rect x="8" y="509" width="28" height="6" fill="#211B18" />
  <rect x="8" y="515" width="6" height="28" fill="#211B18" />
  <rect x="14" y="515" width="14" height="14" fill="#3C332D" />
  <rect x="17" y="518" width="6" height="6" fill="#8A7358" />
  <rect x="19" y="520" width="3" height="3" fill="#171310" />
  <rect x="401" y="509" width="28" height="6" fill="#211B18" />
  <rect x="401" y="515" width="6" height="28" fill="#211B18" />
  <rect x="407" y="515" width="14" height="14" fill="#3C332D" />
  <rect x="410" y="518" width="6" height="6" fill="#8A7358" />
  <rect x="412" y="520" width="3" height="3" fill="#171310" />
  <rect x="21" y="119" width="7" height="7" fill="#241A15" />
  <rect x="23" y="121" width="3" height="3" fill="#6F5B43" />
  <rect x="410" y="119" width="7" height="7" fill="#241A15" />
  <rect x="412" y="121" width="3" height="3" fill="#8B704F" />
  <rect x="21" y="213" width="7" height="7" fill="#241A15" />
  <rect x="23" y="215" width="3" height="3" fill="#6F5B43" />
  <rect x="410" y="213" width="7" height="7" fill="#241A15" />
  <rect x="412" y="215" width="3" height="3" fill="#8B704F" />
  <rect x="21" y="307" width="7" height="7" fill="#241A15" />
  <rect x="23" y="309" width="3" height="3" fill="#6F5B43" />
  <rect x="410" y="307" width="7" height="7" fill="#241A15" />
  <rect x="412" y="309" width="3" height="3" fill="#8B704F" />
  <rect x="21" y="401" width="7" height="7" fill="#241A15" />
  <rect x="23" y="403" width="3" height="3" fill="#6F5B43" />
  <rect x="410" y="401" width="7" height="7" fill="#241A15" />
  <rect x="412" y="403" width="3" height="3" fill="#8B704F" />
</svg>